<?xml version="1.0" standalone="no"?>
<!DOCTYPE svg PUBLIC "-//W3C//DTD SVG 20010904//EN"
 "http://www.w3.org/TR/2001/REC-SVG-20010904/DTD/svg10.dtd">
<svg version="1.0" xmlns="http://www.w3.org/2000/svg"
 width="500.000000pt" height="500.000000pt" viewBox="0 0 500.000000 500.000000"
 preserveAspectRatio="xMidYMid meet">

<g transform="translate(0.000000,500.000000) scale(0.100000,-0.100000)"
fill="#000000" stroke="none">
<path d="M2108 4213 c6 -2 18 -2 25 0 6 3 1 5 -13 5 -14 0 -19 -2 -12 -5z"/>
<path d="M2058 4203 c7 -3 16 -2 19 1 4 3 -2 6 -13 5 -11 0 -14 -3 -6 -6z"/>
<path d="M1925 4185 c-27 -7 -77 -18 -110 -25 -266 -57 -555 -157 -779 -272
-372 -190 -619 -423 -703 -665 -23 -69 -23 -221 1 -293 62 -181 211 -348 451
-506 73 -48 66 -44 300 -163 221 -114 242 -125 355 -198 207 -135 415 -317
523 -458 46 -60 137 -227 137 -252 0 -11 135 -13 734 -13 l734 0 -8 33 c-46
182 -199 397 -395 552 -27 22 -52 43 -55 46 -4 5 -214 142 -285 186 -30 18
-421 213 -428 213 -3 0 -34 13 -69 29 -35 16 -261 110 -503 209 -242 99 -488
202 -547 230 -245 117 -396 236 -436 345 -46 124 -14 270 92 416 163 225 543
438 1016 571 94 26 99 28 60 28 -19 0 -57 -6 -85 -13z"/>
<path d="M1845 4094 c-22 -9 -65 -25 -95 -36 -360 -133 -637 -328 -730 -514
-31 -64 -34 -76 -35 -165 0 -90 2 -98 28 -133 27 -34 96 -86 115 -86 5 0 5 23
0 53 -24 127 7 266 86 390 100 155 318 328 558 440 20 9 60 28 90 42 58 27 47
33 -17 9z"/>
<path d="M1326 3413 c-10 -71 -22 -159 -27 -198 -4 -38 -11 -85 -14 -102 l-6
-33 99 0 c108 0 111 2 112 68 0 19 -5 22 -40 22 -43 0 -44 1 -34 63 6 35 8 37
45 37 42 0 40 -4 39 77 0 4 -15 7 -32 7 -32 1 -33 2 -29 41 4 53 6 55 52 55
36 0 39 2 39 29 0 16 3 36 6 45 5 14 -7 16 -93 16 l-100 0 -17 -127z"/>
<path d="M1576 3432 c6 -106 6 -109 -31 -222 -21 -63 -40 -118 -42 -122 -2 -5
23 -8 55 -8 l60 0 17 68 c26 97 34 106 35 37 1 -99 4 -105 64 -105 l52 0 -14
125 -14 125 31 92 c17 51 31 99 31 106 0 8 -15 12 -43 12 l-44 0 -19 -60 c-18
-57 -35 -80 -32 -42 1 9 0 36 0 60 l-2 42 -56 0 -55 0 7 -108z"/>
<path d="M1880 3539 c0 -7 -38 -264 -50 -334 -5 -33 -12 -75 -14 -92 l-5 -33
59 0 c67 0 65 -3 76 106 l6 71 51 7 c72 8 93 33 105 122 12 84 7 116 -19 132
-18 12 -209 30 -209 21z m135 -89 c10 -17 -7 -101 -22 -107 -22 -8 -24 0 -17
61 6 53 23 72 39 46z"/>
<path d="M2177 3533 c-4 -3 -7 -18 -7 -32 0 -14 -14 -107 -30 -206 -16 -99
-30 -188 -30 -197 0 -15 9 -18 59 -18 l59 0 12 88 c15 114 18 122 37 115 16
-6 16 -19 -3 -156 l-7 -48 54 3 54 3 11 90 c12 93 7 116 -24 134 -15 9 -15 10
-1 11 31 0 51 37 56 102 6 83 -6 99 -83 109 -77 10 -149 11 -157 2z m134 -85
c3 -32 -4 -74 -13 -85 -26 -31 -35 -2 -22 66 6 30 33 44 35 19z"/>
<path d="M2500 3533 c-1 -5 -15 -108 -33 -230 l-32 -223 102 0 c81 0 103 3
103 14 0 7 3 28 6 45 l7 31 -47 0 c-45 0 -46 1 -41 28 4 15 8 37 11 50 3 17
11 22 38 22 35 0 46 15 46 65 0 18 -5 20 -37 17 l-36 -5 6 39 c4 22 7 45 7 52
0 7 14 12 39 12 41 0 51 13 51 68 0 21 -3 22 -95 22 -52 0 -95 -3 -95 -7z"/>
<path d="M2764 3507 c-31 -28 -37 -42 -42 -85 -7 -76 2 -94 68 -145 46 -36 60
-53 60 -73 0 -34 -17 -64 -37 -64 -13 0 -15 9 -11 50 l5 50 -58 0 -59 0 0 -59
c0 -64 12 -85 57 -102 58 -22 154 0 186 43 23 31 34 135 18 166 -6 12 -36 40
-66 62 -44 33 -55 46 -55 69 0 31 23 57 40 46 7 -4 9 -19 5 -36 l-7 -29 56 0
56 0 0 49 c0 69 -28 91 -116 91 -59 0 -67 -3 -100 -33z"/>
<path d="M3080 3518 c-53 -36 -75 -121 -45 -177 8 -16 37 -45 65 -66 45 -33
50 -41 50 -75 0 -39 -21 -67 -40 -55 -7 4 -9 23 -4 51 l6 44 -56 0 -56 0 0
-65 c0 -58 3 -66 25 -81 38 -25 108 -29 159 -10 54 21 77 62 79 141 1 47 -3
59 -28 85 -16 16 -43 40 -61 52 -18 13 -35 31 -38 41 -7 27 11 67 30 67 13 0
15 -8 12 -35 l-4 -35 53 0 c51 0 52 1 58 33 8 43 -9 85 -40 97 -48 18 -129 12
-165 -12z"/>
<path d="M3337 3533 c-2 -5 -5 -98 -6 -208 -1 -110 -5 -210 -8 -222 -5 -22 -3
-23 74 -23 l79 0 31 118 31 117 1 -117 1 -118 78 0 77 0 55 218 c30 119 57
223 58 230 3 10 -11 12 -54 10 l-58 -3 -35 -140 c-40 -165 -54 -202 -47 -130
3 28 8 101 12 163 l7 112 -61 0 c-49 0 -62 -3 -66 -17 -3 -10 -17 -70 -31
-133 -31 -133 -48 -179 -41 -110 3 25 8 93 12 153 l6 107 -55 0 c-31 0 -58 -3
-60 -7z"/>
<path d="M3846 3478 c-26 -102 -97 -372 -101 -388 -4 -12 6 -15 53 -14 l57 2
8 43 c16 90 15 89 47 89 l29 0 -6 -65 -6 -65 67 0 c56 0 66 3 66 18 0 9 -7
107 -15 217 -8 110 -15 206 -15 213 0 8 -24 12 -84 12 l-84 0 -16 -62z m96
-103 c-3 -66 -6 -75 -23 -75 -22 0 -22 2 -8 72 15 72 17 78 26 78 4 0 7 -34 5
-75z"/>
<path d="M4080 3523 c0 -10 9 -77 20 -148 15 -102 17 -145 10 -195 -16 -106
-17 -101 42 -98 l53 3 10 80 c9 63 25 110 73 217 34 76 62 143 62 148 0 7 -20
10 -52 8 l-53 -3 -25 -82 c-13 -46 -28 -83 -33 -83 -5 0 -7 13 -4 28 3 16 3
54 0 85 l-6 57 -48 0 c-40 0 -49 -3 -49 -17z"/>
<path d="M4469 3231 c-20 -16 -22 -23 -13 -38 6 -10 24 -20 40 -21 16 -2 34
-8 41 -14 7 -5 21 -7 33 -3 33 11 60 -3 60 -32 l0 -26 20 26 c25 31 26 68 3
95 -14 15 -35 21 -89 26 -62 5 -75 3 -95 -13z"/>
<path d="M4631 2939 c-28 -23 -54 -24 -85 -4 -22 14 -28 14 -85 -11 -65 -28
-87 -55 -155 -192 l-27 -54 23 8 c32 11 58 10 173 -9 55 -9 129 -21 165 -27
100 -16 110 -19 111 -38 0 -14 2 -14 6 -2 12 32 37 49 79 56 24 3 44 10 44 15
0 6 -13 44 -30 87 -25 66 -38 84 -85 122 -76 63 -104 73 -134 49z"/>
<path d="M260 2833 c0 -46 25 -202 41 -253 24 -79 17 -63 132 -300 162 -332
179 -383 179 -530 0 -74 -5 -109 -23 -155 -27 -72 -79 -155 -130 -210 l-38
-40 451 -3 c248 -1 454 0 456 3 10 9 -19 155 -39 202 -22 51 -93 176 -112 195
-7 7 -23 29 -37 48 -31 46 -286 306 -375 383 -38 33 -99 85 -135 116 -71 61
-185 173 -213 210 -10 12 -30 44 -44 69 -14 26 -29 52 -33 57 -15 22 -50 122
-56 163 -4 23 -11 45 -15 48 -5 3 -9 2 -9 -3z"/>
<path d="M4753 2540 c0 -30 2 -43 4 -27 2 15 2 39 0 55 -2 15 -4 2 -4 -28z"/>
<path d="M4690 2359 c-93 -47 -159 -53 -183 -15 -12 18 -28 25 -73 31 -31 4
-63 9 -71 12 -10 4 -13 -12 -13 -75 0 -71 2 -80 20 -85 16 -4 20 -14 20 -49 0
-23 9 -187 20 -363 11 -176 20 -326 20 -332 0 -7 7 -13 15 -13 8 0 15 -8 15
-17 0 -34 -39 -80 -100 -121 -57 -37 -60 -41 -42 -51 29 -15 76 -14 119 4 19
8 53 15 74 15 22 0 39 3 39 7 0 3 -5 35 -11 70 -8 46 -8 76 -1 106 6 23 14
181 18 350 3 169 9 305 12 302 4 -3 46 -151 94 -328 52 -189 94 -327 103 -333
23 -17 18 -48 -19 -129 -19 -40 -31 -76 -28 -79 3 -3 22 -6 43 -6 57 0 71 28
81 158 6 91 2 157 -27 432 -19 179 -37 374 -40 434 -3 60 -6 111 -8 112 -1 1
-36 -15 -77 -37z m-123 -65 c-3 -3 -12 -4 -19 -1 -8 3 -5 6 6 6 11 1 17 -2 13
-5z m33 -98 c0 -2 -8 -10 -17 -17 -16 -13 -17 -12 -4 4 13 16 21 21 21 13z"/>
</g>
</svg>
